grf
version=1
nRows=9
nColumns=46
inDegrees=yes
endheader
time	ground_force_1_vx	ground_force_1_vy	ground_force_1_vz	ground_force_1_px	ground_force_1_py	ground_force_1_pz	ground_moment_1_mx	ground_moment_1_my	ground_moment_1_mz	ground_force_2_vx	ground_force_2_vy	ground_force_2_vz	ground_force_2_px	ground_force_2_py	ground_force_2_pz	ground_moment_2_mx	ground_moment_2_my	ground_moment_2_mz	ground_force_3_vx	ground_force_3_vy	ground_force_3_vz	ground_force_3_px	ground_force_3_py	ground_force_3_pz	ground_moment_3_mx	ground_moment_3_my	ground_moment_3_mz	ground_force_4_vx	ground_force_4_vy	ground_force_4_vz	ground_force_4_px	ground_force_4_py	ground_force_4_pz	ground_moment_4_mx	ground_moment_4_my	ground_moment_4_mz	ground_force_5_vx	ground_force_5_vy	ground_force_5_vz	ground_force_5_px	ground_force_5_py	ground_force_5_pz	ground_moment_5_mx	ground_moment_5_my	ground_moment_5_mz
1.863500	0.000000	0.000000	0.000000	0.000000	0.000000	0.000000	0.000000	0.000000	0.000000	0.000000	0.000000	0.000000	0.000000	0.000000	0.000000	0.000000	0.000000	0.000000	0.000000	0.000000	0.000000	0.000000	0.000000	0.000000	0.000000	0.000000	0.000000	0.417644	448.352076	-112.943179	0.180206	0.000000	-0.893414	0.000000	5.517622	0.000000	0.518248	407.974964	106.077718	0.221792	0.000000	-1.580876	0.000000	-3.118560	-0.000000
1.864000	0.000000	0.000000	0.000000	0.000000	0.000000	0.000000	0.000000	0.000000	0.000000	0.000000	0.000000	0.000000	0.000000	0.000000	0.000000	0.000000	0.000000	0.000000	0.000000	0.000000	0.000000	0.000000	0.000000	0.000000	0.000000	0.000000	0.000000	0.468810	447.632861	-112.784000	0.180168	0.000000	-0.893427	0.000000	5.509352	0.000000	0.454481	407.236382	105.943048	0.221811	0.000000	-1.580875	0.000000	-3.113419	-0.000000
1.864500	0.000000	0.000000	0.000000	0.000000	0.000000	0.000000	0.000000	0.000000	0.000000	0.000000	0.000000	0.000000	0.000000	0.000000	0.000000	0.000000	0.000000	0.000000	0.000000	0.000000	0.000000	0.000000	0.000000	0.000000	0.000000	0.000000	0.000000	0.519764	446.911130	-112.624449	0.180131	0.000000	-0.893438	0.000000	5.501041	0.000000	0.391586	406.499404	105.807290	0.221831	0.000000	-1.580874	0.000000	-3.108312	-0.000000
1.865000	0.000000	0.000000	0.000000	0.000000	0.000000	0.000000	0.000000	0.000000	0.000000	0.000000	0.000000	0.000000	0.000000	0.000000	0.000000	0.000000	0.000000	0.000000	0.000000	0.000000	0.000000	0.000000	0.000000	0.000000	0.000000	0.000000	0.000000	0.570450	446.186916	-112.464575	0.180094	0.000000	-0.893449	0.000000	5.492687	0.000000	0.329619	405.764123	105.670437	0.221850	0.000000	-1.580874	0.000000	-3.103244	-0.000000
1.865500	0.000000	0.000000	0.000000	0.000000	0.000000	0.000000	0.000000	0.000000	0.000000	0.000000	0.000000	0.000000	0.000000	0.000000	0.000000	0.000000	0.000000	0.000000	0.000000	0.000000	0.000000	0.000000	0.000000	0.000000	0.000000	0.000000	0.000000	0.620821	445.460272	-112.304427	0.180058	0.000000	-0.893459	0.000000	5.484289	0.000000	0.268631	405.030646	105.532493	0.221870	0.000000	-1.580873	0.000000	-3.098221	-0.000000
1.866000	0.000000	0.000000	0.000000	0.000000	0.000000	0.000000	0.000000	0.000000	0.000000	0.000000	0.000000	0.000000	0.000000	0.000000	0.000000	0.000000	0.000000	0.000000	0.000000	0.000000	0.000000	0.000000	0.000000	0.000000	0.000000	0.000000	0.000000	0.670842	444.731273	-112.144050	0.180022	0.000000	-0.893469	0.000000	5.475844	0.000000	0.208678	404.299092	105.393476	0.221889	0.000000	-1.580873	0.000000	-3.093249	-0.000000
1.866500	0.000000	0.000000	0.000000	0.000000	0.000000	0.000000	0.000000	0.000000	0.000000	0.000000	0.000000	0.000000	0.000000	0.000000	0.000000	0.000000	0.000000	0.000000	0.000000	0.000000	0.000000	0.000000	0.000000	0.000000	0.000000	0.000000	0.000000	0.720488	444.000011	-111.983490	0.179987	0.000000	-0.893479	0.000000	5.467350	0.000000	0.149812	403.569580	105.253417	0.221909	0.000000	-1.580872	0.000000	-3.088331	-0.000000
1.867000	0.000000	0.000000	0.000000	0.000000	0.000000	0.000000	0.000000	0.000000	0.000000	0.000000	0.000000	0.000000	0.000000	0.000000	0.000000	0.000000	0.000000	0.000000	0.000000	0.000000	0.000000	0.000000	0.000000	0.000000	0.000000	0.000000	0.000000	0.769739	443.266595	-111.822792	0.179953	0.000000	-0.893487	0.000000	5.458808	0.000000	0.092087	402.842222	105.112355	0.221928	0.000000	-1.580871	0.000000	-3.083474	-0.000000
1.867500	0.000000	0.000000	0.000000	0.000000	0.000000	0.000000	0.000000	0.000000	0.000000	0.000000	0.000000	0.000000	0.000000	0.000000	0.000000	0.000000	0.000000	0.000000	0.000000	0.000000	0.000000	0.000000	0.000000	0.000000	0.000000	0.000000	0.000000	0.818583	442.531137	-111.662001	0.179920	0.000000	-0.893495	0.000000	5.450215	0.000000	0.035554	402.117120	104.970339	0.221947	0.000000	-1.580871	0.000000	-3.078680	-0.000000
